inDegrees=no
num_controls=7
num_derivatives=13
num_iterations=144
num_multipliers=7
num_parameters=0
num_slacks=7
num_states=26
objective=0.449195
objective_accelerations=0.052033
objective_balance=0.006382
objective_effort=0.036129
objective_height=0.349816
objective_ligament=0.004835
solver_duration=2196.961193
status=Restoration_Failed
success=false
DataType=double
version=3
OpenSimVersion=4.5
endheader
time	/jointset/ground_pelvis/pelvis_tilt/value	/jointset/ground_pelvis/pelvis_tx/value	/jointset/ground_pelvis/pelvis_ty/value	/jointset/hip_l/hip_flexion_l/value	/jointset/hip_l/hip_adduction_l/value	/jointset/hip_l/hip_rotation_l/value	/jointset/back/lumbar_extension/value	/jointset/patellofemoral_l/patellar_flexion_l/value	/jointset/knee_l/knee_flexion_l/value	/jointset/knee_l/knee_adduction_l/value	/jointset/knee_l/knee_rotation_l/value	/jointset/ankle_l/ankle_angle_l/value	/jointset/subtalar_l/subtalar_angle_l/value	/jointset/ground_pelvis/pelvis_tilt/speed	/jointset/ground_pelvis/pelvis_tx/speed	/jointset/ground_pelvis/pelvis_ty/speed	/jointset/hip_l/hip_flexion_l/speed	/jointset/hip_l/hip_adduction_l/speed	/jointset/hip_l/hip_rotation_l/speed	/jointset/back/lumbar_extension/speed	/jointset/patellofemoral_l/patellar_flexion_l/speed	/jointset/knee_l/knee_flexion_l/speed	/jointset/knee_l/knee_adduction_l/speed	/jointset/knee_l/knee_rotation_l/speed	/jointset/ankle_l/ankle_angle_l/speed	/jointset/subtalar_l/subtalar_angle_l/speed	/forceset/tau_hip_flexion_l	/forceset/tau_hip_adduction_l	/forceset/tau_hip_rotation_l	/forceset/tau_knee_flexion_l	/forceset/tau_ankle_angle_l	/forceset/tau_subtalar_angle_l	/forceset/tau_lumbar_extension	lambda_cid13_p0	lambda_cid13_p1	lambda_cid13_p2	lambda_cid13_p3	lambda_cid13_p4	lambda_cid13_p5	lambda_cid14_p0	/jointset/ground_pelvis/pelvis_tilt/accel	/jointset/ground_pelvis/pelvis_tx/accel	/jointset/ground_pelvis/pelvis_ty/accel	/jointset/hip_l/hip_flexion_l/accel	/jointset/hip_l/hip_adduction_l/accel	/jointset/hip_l/hip_rotation_l/accel	/jointset/back/lumbar_extension/accel	/jointset/patellofemoral_l/patellar_flexion_l/accel	/jointset/knee_l/knee_flexion_l/accel	/jointset/knee_l/knee_adduction_l/accel	/jointset/knee_l/knee_rotation_l/accel	/jointset/ankle_l/ankle_angle_l/accel	/jointset/subtalar_l/subtalar_angle_l/accel	gamma_cid13_p0	gamma_cid13_p1	gamma_cid13_p2	gamma_cid13_p3	gamma_cid13_p4	gamma_cid13_p5	gamma_cid14_p0
1.5	-0.4289126955344735	-0.0586395898226065	0.7613663015600572	1.257535625835314	-0.308518920537542	-0.02439127761818289	-0.3418693012802044	0.7384202221865298	0.7384202221865284	-0.1732737217345799	0.1720350408174128	0.08159216742667931	-0.03942035157957256	0.6817605434448176	0.224274013731338	0.5018619006819171	-2.323397045489767	0.01648719358283186	-0.6446492035586348	0.5712766542974602	-1.883654267570155	-1.88365426757016	0.006273785021974593	-0.0189785301279111	-0.3471489843976884	-0.03017136999273984	-0.2413632311284475	0.06752309949328775	-0.0218017993315139	-0.2088685295452361	0.1208536773234026	0.0001565942408393746	0.2198909224844354	-0.8489916065452749	-2.027537155719482	2.328875114821027	-3.167019620185284	-608.536025531406	-18.7031239956972	-25.34487562850378	0.6293278153733763	0.6331145254169877	-0.3386589282118602	-1.487980805710849	0.6409773982394364	-0.3100432948577895	1.724804797694327	-1.179891125559775	-1.179891125559774	0.05707644997614334	-0.0617443609682211	-0.2835713602123887	0.6197093288603194	3.69368197865135e-07	7.603142829461301e-07	-1.916511792532968e-06	-1.657188879439293e-07	4.48522408462353e-07	8.692161822045531e-08	3.705385317609067e-07
1.51	-0.4220639163513862	-0.05636535718099436	0.7663670457402313	1.234229189647964	-0.3083234891022468	-0.03085079670597179	-0.3360718423818917	0.7195265319896212	0.7195265319896221	-0.1732122382053236	0.1718422494310897	0.07810652594398526	-0.03969279902676368	0.6878977546748348	0.2305484408924819	0.4981855981960852	-2.33756656878441	0.02260666528073958	-0.6471521798515154	0.5881327868690989	-1.894817067616472	-1.894817067616475	0.006002616957648373	-0.01959042398652047	-0.3499115152127629	-0.02430999235048905	-0.2333905045360792	0.0669767571264482	-0.02169414961541585	-0.207567911266676	0.1222717117709822	-0.0007574501168564202	0.2136578901962328	-0.1750286559748692	-1.892238574180676	2.471403979851902	-3.346481730152939	-604.0372709148544	-18.82041692815713	-26.45808357959076	0.5913337507895464	0.6209546130700065	-0.3972100659144761	-1.332835368872643	0.5987782159536671	-0.2046731027593137	1.653666712504178	-1.044553335236335	-1.044553335236254	-0.07222470950800466	-0.0620523021342325	-0.2624237463242824	0.5706958727266022	4.137970276641473e-07	8.159686202129375e-07	-2.11604269689391e-06	-1.921183080385197e-07	5.036716506971684e-07	1.325180369912269e-07	4.049001880244348e-07
1.52	-0.4151566818612039	-0.0540291107074494	0.7713280080641178	1.210790778772161	-0.3080665937178951	-0.03733219521794072	-0.3301082923127416	0.7005291980140358	0.7005291980140391	-0.1731540686116847	0.1716431110254151	0.07459529319230659	-0.03990636391936847	0.6934516048637981	0.2366767801179021	0.4939055294244283	-2.349791983180321	0.02877998339413643	-0.6490250883946401	0.6044948884649592	-1.904383023305539	-1.904383023305543	0.005610997898482154	-0.02024793399820733	-0.3522672381946093	-0.0183948590754725	-0.2254177779437109	0.06643041475960866	-0.0215864998993178	-0.2062672929881158	0.1236897462185618	-0.001671494474552215	0.2074248579080301	0.4965145489220988	-1.761582054748873	2.620460525663435	-3.555382857052478	-599.5917163305558	-19.02927559516111	-27.56779214261531	0.5126556071625903	0.6038969382722358	-0.4594121853768594	-1.099159025964623	0.6517466813372633	-0.184029744906569	1.62599860253867	-0.8605222541101158	-0.8605222541101158	0.03298625100814371	-0.07086759158371804	-0.2022097935667678	0.630460455413471	3.746025473875159e-07	9.956119725850773e-07	-1.90836338048767e-06	-1.388266471135645e-07	4.891808117018505e-07	1.969375776118608e-07	3.903400306315024e-07
1.53	-0.4081968503699543	-0.05163237837927436	0.7762431746274198	1.187240068837427	-0.3077474696901541	-0.04383106709692883	-0.3239837442744827	0.6814447369539407	0.6814447369539435	-0.1730987873334961	0.1714385169143359	0.07106275618133093	-0.04006021515550425	0.6984126840996091	0.2426372914058583	0.4890307768594759	-2.360013434128506	0.03504348728201542	-0.650632119658993	0.6203149257566858	-1.912233074190035	-1.912233074190033	0.00541077803000036	-0.02068649876461623	-0.3541712988216081	-0.01237654944205826	-0.2173510241405733	0.06562828610673485	-0.02146255194386325	-0.2050846934449644	0.1251595189602561	-0.002731813035122379	0.2010716371379078	1.174646878368288	-1.569143820492152	2.760342104022632	-3.705716847332648	-595.1992141470738	-19.17201217536379	-28.66803937207769	0.4725574481998028	0.587283706570445	-0.5159870830321726	-0.9331213701785005	0.6134082174436023	-0.1311698568137247	1.545037277967796	-0.705886962751308	-0.7058869627505616	-0.05149567031559189	-0.03245789570594161	-0.174156461915642	0.5872176096606589	2.465583001555141e-07	1.306993653506631e-06	-1.268023204516304e-06	-8.63212605342896e-10	4.006973863995168e-07	2.81356685197973e-07	3.238004462285816e-07
1.54	-0.4011904634130648	-0.04917700984171714	0.7811066976068766	1.163597247745024	-0.3073657594285483	-0.0503424352964833	-0.3177039896662108	0.6622900472935742	0.6622900472935763	-0.1730465021669	0.1712291157602854	0.06751324811115542	-0.04015394301683484	0.7027626979917984	0.2484040219943398	0.4835768126554138	-2.368214214714015	0.04129723016710987	-0.6515243525079085	0.6355362024675387	-1.918428743359813	-1.918428743359806	0.005011775579948523	-0.02120934259248378	-0.3556614500345753	-0.006370184114433633	-0.2092842703374357	0.06482615745386104	-0.0213386039884087	-0.203902093901813	0.1266292917019505	-0.003792131595692543	0.1947184163677854	1.845572535008833	-1.3789170481418	2.904544009982258	-3.85099658890335	-590.916455881323	-19.3855525012627	-29.74671115278786	0.390442538438255	0.5651407983772959	-0.5752545131987933	-0.6950249534295531	0.649794480780357	-0.04107006181907592	1.506246486363988	-0.5296459111666388	-0.5296459111666381	-0.006770265305865184	-0.08772340387544933	-0.1194279107604616	0.62807159425555	1.602552545731815e-07	1.529588237871876e-06	-8.483734948576933e-07	9.060719758254288e-08	3.46969683139092e-07	3.439182605819155e-07	2.807048374641115e-07
1.55	-0.3941436780085014	-0.04666502036577232	0.7859128381576196	1.139882650293815	-0.3069214950325059	-0.05686002288160494	-0.3112751980966806	0.6430818961506666	0.6430818961506667	-0.1729985080430708	0.1710146648729877	0.06395097793056823	-0.04018757036404979	0.7064854042472225	0.2539529592181865	0.477559459625559	-2.374351056375939	0.04755343235559937	-0.6519000820404753	0.6501049499796947	-1.922909425592536	-1.922909425592528	0.004578202557106207	-0.02167788366362575	-0.3567199050606472	-0.0003561500123920379	-0.2011289131455194	0.06380111268809355	-0.02126053200549597	-0.2028226483551492	0.1282224776152112	-0.004965727190228858	0.1882561190995144	2.546157531995076	-1.145057784849895	3.042212688610957	-3.974981660843584	-586.7147586552826	-19.55141797357085	-30.7985770128313	0.3468545793500913	0.543663001207872	-0.6286862410400589	-0.5198589120006792	0.6130775497484091	-0.02158782608854584	1.414614664819416	-0.363521571981252	-0.363521571981055	-0.06271967224443699	-0.02579600397748093	-0.08813055969310936	0.5877383998489096	1.220453326306824e-07	1.649884645770074e-06	-6.829975833420252e-07	1.285095580100447e-07	3.332866161443424e-07	3.812961575590119e-07	2.646207658482896e-07
1.56	-0.3870629315593327	-0.04409876295422514	0.7906560630694318	1.116117315398101	-0.3064147597222055	-0.06337852044747486	-0.3047042338957932	0.6238376897469005	0.6238376897468986	-0.1729550634197641	0.1707956532659298	0.06038030794748781	-0.04016112355391023	0.70955490691287	0.259257609114814	0.4709936848692547	-2.378361703614934	0.05379141301869541	-0.6517063486575649	0.6639707287389719	-1.925639795531503	-1.925639795531494	0.004101875475423001	-0.02212148654452414	-0.3573414105332214	0.005644647356467403	-0.1929735559536031	0.06277606792232607	-0.02118246002258324	-0.2017432028084853	0.129815663528472	-0.006139322784765174	0.1817938218312434	3.238543643438071	-0.9124910125289996	3.183203737814153	-4.085494140099217	-582.6342383153448	-19.78191083633371	-31.81854912706494	0.2598018204829076	0.5162833329334778	-0.6849388584886852	-0.2697860688436215	0.6461501757016654	0.07282252127635232	1.365652735788282	-0.1795834524154881	-0.1795834524154882	-0.01532107707404315	-0.08273576582673504	-0.03203800006093989	0.6254242476191194	9.404005687105667e-08	1.744752528199003e-06	-5.757276307904555e-07	1.554830930015424e-07	3.261097968733847e-07	4.142795041136474e-07	2.544682975541085e-07
